<svg width="416" height="85" viewBox="0 0 416 85" fill="none" xmlns="http://www.w3.org/2000/svg">
<g filter="url(#filter0_ddi_36_2)">
<path d="M217.874 59.4984C216.215 61.1005 214.588 62.6735 212.962 64.2416C212.934 64.2319 212.902 64.2173 212.874 64.2076V63.892C212.874 62.4502 212.863 61.0131 212.874 59.5712C212.88 58.5614 212.683 57.6099 212.061 56.7409C211.717 56.2651 211.45 55.7456 211.122 55.2067C211.963 55.1242 212.754 55.0368 213.54 54.964C213.988 54.9203 214.364 54.7698 214.528 54.3863C214.828 53.6872 215.096 52.9784 215.396 52.2259C215.068 52.289 214.779 52.3424 214.49 52.4055C212.94 52.7356 211.39 53.0658 209.84 53.3959C209.452 53.4784 209.354 53.5804 209.381 53.9396C209.518 55.7748 209.665 57.6099 209.812 59.445C209.878 60.2606 209.692 60.5665 208.879 60.9306C208.59 61.0617 208.295 61.1879 207.995 61.2996C207.907 61.3335 207.776 61.3335 207.684 61.2996C207.242 61.1345 206.81 60.9354 206.363 60.7801C205.833 60.5908 205.648 60.2315 205.675 59.7606C205.702 59.2702 205.73 58.7848 205.768 58.2944C205.877 56.8671 205.986 55.4446 206.095 54.0173C206.123 53.6241 206.003 53.459 205.571 53.3716C203.803 52.9929 202.035 52.6288 200.261 52.255C200.217 52.2453 200.173 52.2453 200.048 52.2307C200.413 53.0463 200.735 53.828 201.123 54.5853C201.21 54.7504 201.532 54.8718 201.767 54.9106C202.564 55.032 203.366 55.1096 204.169 55.2019C204.212 55.2067 204.256 55.2116 204.332 55.2213C204.294 55.3038 204.272 55.3718 204.234 55.4398C203.836 56.1 203.426 56.7554 203.039 57.4205C202.679 58.042 202.515 58.7119 202.509 59.4159C202.493 60.916 202.46 62.4162 202.433 63.9115C202.433 63.9989 202.417 64.0814 202.4 64.2416C200.812 62.6589 199.273 61.1296 197.712 59.5712C195.867 62.0569 194.044 64.5086 192.226 66.9603C192.183 66.9457 192.144 66.9263 192.101 66.9118C192.095 66.8195 192.079 66.7224 192.079 66.6302C192.063 63.2803 192.128 59.9256 192.008 56.5807C191.91 53.9785 192.712 51.7113 194.464 49.648C195.283 48.6867 195.982 47.6429 196.74 46.638C196.997 46.2933 197.117 45.9243 197.111 45.5068C197.073 42.7832 197.27 40.0742 197.783 37.3846C198.765 32.2725 200.692 27.4953 204.272 23.3396C205.195 22.2715 206.259 21.3006 207.274 20.3005C207.695 19.8878 207.815 19.9121 208.257 20.3005C212.552 24.1455 215.374 28.7187 216.875 33.9571C217.721 36.9137 218.234 39.9092 218.305 42.958C218.327 43.7687 218.354 44.5746 218.371 45.3854C218.381 45.7544 218.48 46.0894 218.714 46.4001C219.757 47.7643 220.778 49.1382 221.82 50.5024C223.146 52.2453 223.676 54.1775 223.638 56.2602C223.594 58.8479 223.594 61.4404 223.561 64.028C223.55 64.897 223.507 65.766 223.479 66.635C223.479 66.7224 223.457 66.8049 223.43 66.97C221.553 64.4358 219.724 61.9744 217.879 59.4839L217.874 59.4984Z" fill="url(#paint0_linear_36_2)" shape-rendering="crispEdges"/>
</g>
<path d="M272.972 56.5424C274.15 56.7119 275.328 56.8815 276.506 57.0341C277.906 57.2207 279.305 57.3224 280.722 57.085C282.259 56.8137 283.181 56.0337 283.522 54.5245C283.676 53.8632 283.761 53.1849 283.83 52.4896C283.898 51.8283 283.659 51.574 282.993 51.4892C282.703 51.4553 282.413 51.4383 282.122 51.4383C279.271 51.4383 276.42 51.4383 273.569 51.4383H273.04C273.006 51.15 272.972 50.8957 272.972 50.6413C272.972 46.5716 272.972 42.5189 272.972 38.4492C272.972 36.2448 272.938 34.0404 273.074 31.836C273.16 30.3946 273.347 28.9194 273.74 27.5289C274.594 24.4936 276.779 22.9335 279.852 22.4927C283.13 22.0179 286.356 22.3909 289.583 23.0353C289.941 23.1031 290.18 23.3236 290.18 23.6797C290.197 25.4941 290.18 27.3085 290.197 29.1059C290.197 29.1059 290.197 29.1398 290.146 29.2076C289.48 29.0889 288.797 28.9363 288.115 28.8515C286.202 28.6311 284.273 28.4954 282.344 28.6989C280.705 28.8685 279.63 29.9707 279.613 31.6155C279.579 35.4817 279.579 39.3479 279.579 43.2142C279.579 43.9772 279.579 44.7233 279.579 45.5203H290.231C290.231 45.8934 290.231 46.2495 290.231 46.5886C290.197 48.7082 290.214 50.8109 290.129 52.9305C290.078 54.4736 290.061 56.0506 289.753 57.5598C289.139 60.7308 286.902 62.6808 283.591 63.2404C281.235 63.6474 278.896 63.5117 276.54 63.1895C275.635 63.0708 274.73 62.9182 273.808 62.7656C273.262 62.6808 273.006 62.4265 272.989 61.8838C272.972 60.1712 272.989 58.4416 272.972 56.7289C272.972 56.678 272.989 56.6441 273.006 56.5763L272.972 56.5424Z" fill="white"/>
<path d="M250.42 47.0634C251.308 47.0634 252.076 47.0634 252.827 47.0634C252.861 47.0634 252.895 47.0634 252.912 47.0634C254.125 46.9786 254.261 47.1143 254.227 48.2843C254.142 50.2853 254.09 52.3031 253.937 54.3041C253.817 55.8472 253.459 57.3733 252.742 58.7807C251.598 61.036 249.703 62.2569 247.21 62.4774C244.991 62.6639 242.772 62.7317 240.552 62.8165C238.999 62.8674 237.462 62.8843 235.909 62.9182C235.772 62.9182 235.636 62.9182 235.448 62.9182C235.448 62.7317 235.431 62.5621 235.431 62.4095C235.431 49.4883 235.431 36.567 235.431 23.6458C235.431 23.0353 235.431 23.0353 236.046 23.0353C239.101 23.0692 242.14 23.0862 245.196 23.154C246.306 23.1879 247.432 23.3066 248.525 23.4931C251.496 23.9849 253.203 25.7823 253.749 28.682C254.227 31.1577 254.295 33.6674 254.244 36.177C254.193 38.1779 253.988 40.1619 253.476 42.095C253.049 43.7568 252.247 45.1981 251.018 46.4021C250.83 46.5886 250.659 46.8091 250.403 47.1143L250.42 47.0634ZM241.765 37.2114C241.765 37.8388 241.765 38.4662 241.765 39.0767C241.765 40.908 241.765 42.7224 241.799 44.5538C241.799 45.2829 241.969 45.4525 242.652 45.4864C242.823 45.4864 242.994 45.5203 243.164 45.5203C244.342 45.5203 245.418 45.266 246.05 44.1977C246.459 43.5194 246.886 42.8242 247.074 42.0781C247.398 40.7724 247.62 39.4328 247.774 38.0931C248.03 35.8379 247.876 33.5656 247.689 31.3103C247.586 30.1573 246.903 29.3772 245.742 29.2246C244.803 29.1059 243.847 29.089 242.908 29.0381C241.85 28.9872 241.765 29.072 241.765 30.1403C241.765 32.4973 241.765 34.8544 241.765 37.2114ZM241.816 56.8646C243.13 56.7798 244.36 56.7459 245.589 56.6102C246.698 56.4746 247.535 55.8811 247.723 54.728C247.859 53.8801 247.876 52.9984 247.859 52.1505C247.859 51.7944 247.586 51.4892 247.125 51.4892C245.828 51.4892 244.513 51.4553 243.216 51.4553C242.157 51.4553 241.748 51.4044 241.799 52.7949C241.833 54.1175 241.799 55.4402 241.799 56.8815L241.816 56.8646Z" fill="white"/>
<path d="M180.408 57.085C180.408 57.1867 180.443 57.2715 180.443 57.3733C180.443 59.1368 180.443 60.9003 180.443 62.6978H164.993V23.0522H171.292V23.6457C171.292 34.21 171.292 44.7742 171.292 55.3384C171.292 55.6776 171.309 55.9998 171.292 56.3389C171.292 56.7628 171.463 56.9833 171.924 56.9833C172.863 56.9833 173.802 56.9833 174.724 56.9833C176.448 56.9833 178.155 57.0002 179.879 57.0172C180.05 57.0172 180.204 57.0511 180.391 57.068L180.408 57.085Z" fill="white"/>
<path d="M126.479 56.5254C127.657 56.6949 128.8 56.8645 129.961 57.0171C131.907 57.2715 133.871 57.3562 135.834 57.068C137.609 56.8136 138.77 55.6945 138.924 53.914C138.992 53.117 138.924 52.303 138.924 51.4552H126.598V23.0183C126.598 23.0183 126.769 22.9843 126.854 22.9843C128.647 22.9843 130.439 22.9843 132.232 22.9843C132.693 22.9843 132.898 23.1709 132.949 23.6287C132.966 23.9 132.949 24.1713 132.949 24.4426C132.949 31.3102 132.949 38.1778 132.949 45.0454C132.949 45.1302 132.949 45.232 132.949 45.3507H138.992V23.0522H145.343V23.9678C145.343 30.7507 145.343 37.5165 145.343 44.2993C145.343 47.3516 145.309 50.3869 145.275 53.4392C145.258 55.3214 144.865 57.1358 144.182 58.8654C143.346 60.9681 141.673 62.1381 139.556 62.7655C137.097 63.4947 134.571 63.5625 132.044 63.3421C130.439 63.2064 128.852 62.9521 127.264 62.7486C126.666 62.6638 126.462 62.4434 126.462 61.8499C126.462 60.1033 126.462 58.3567 126.462 56.5423L126.479 56.5254Z" fill="white"/>
<path d="M107.956 42.9429C107.956 46.0799 107.973 49.217 107.956 52.354C107.956 53.948 107.956 55.5419 107.563 57.1189C106.624 60.9682 103.824 63.2913 99.8295 63.4609C98.1906 63.5287 96.5346 63.5117 94.9469 63.0878C91.8399 62.24 90.0473 60.1542 89.4327 57.0681C89.2279 56.0676 89.1425 55.0163 89.1425 53.9819C89.1084 47.1991 89.0913 40.3993 89.1084 33.6165C89.1084 31.7851 89.1084 29.9368 89.5864 28.1394C90.5766 24.4936 93.3422 22.3231 97.1492 22.2722C98.7027 22.2553 100.239 22.2214 101.776 22.5775C104.985 23.3066 107.341 25.901 107.734 29.2246C107.904 30.5981 107.973 31.9886 107.99 33.3621C108.024 36.5501 107.99 39.7549 107.99 42.9429C107.99 42.9429 107.973 42.9429 107.956 42.9429ZM101.451 42.7902C101.451 40.0093 101.451 37.2283 101.451 34.4304C101.451 33.0399 101.451 31.6664 101.349 30.276C101.281 29.1059 100.564 28.3429 99.4368 28.1394C99.1637 28.0885 98.8905 28.0715 98.6174 28.0546C97.0126 27.9868 96.0566 28.6481 95.6981 30.1064C95.5786 30.6151 95.4932 31.1577 95.4932 31.6834C95.4932 39.2123 95.4932 46.7582 95.4932 54.2871C95.4932 55.101 95.7152 55.8472 96.1932 56.5085C96.9273 57.5429 97.9687 57.8481 99.1295 57.6785C100.273 57.5259 101.007 56.7798 101.264 55.6776C101.4 55.0841 101.434 54.4397 101.434 53.8293C101.434 50.1496 101.434 46.4699 101.434 42.7733L101.451 42.7902Z" fill="white"/>
<path d="M58.0206 51.4383V62.6638H51.4821V51.4552H46.7532C46.8044 51.3026 46.8215 51.1839 46.8557 51.0822C47.5385 49.4543 48.2385 47.8264 48.9043 46.1986C49.0921 45.7577 49.3823 45.5372 49.8262 45.5203C50.3212 45.5203 50.8334 45.5203 51.3797 45.5203V22.9674C52.0113 22.9674 52.5918 22.9674 53.1893 22.9674C54.3331 22.9674 55.494 22.9674 56.6378 22.9674C59.3693 22.9674 62.1008 22.9335 64.7981 23.4592C67.8711 24.0527 69.4075 25.5788 69.9368 28.8515C70.6196 33.0569 70.6879 37.2792 69.8002 41.4675C69.3734 43.4346 68.5027 45.1642 66.9833 46.5377C66.915 46.6055 66.8638 46.6734 66.7955 46.7412C66.7443 46.7921 66.7273 46.8599 66.6419 46.9955H70.3123C70.3123 47.7756 70.3123 48.4878 70.3123 49.2169C70.3294 51.3704 70.3465 53.507 70.3977 55.6606C70.4489 58.1872 71.0293 60.5612 72.6 62.6977C72.4634 62.7147 72.3951 62.7486 72.3097 62.7486C70.5001 62.7486 68.6905 62.7317 66.8809 62.7317C66.4029 62.7317 66.0615 62.5451 65.7712 62.206C65.003 61.2564 64.5933 60.1542 64.3543 58.9672C63.9787 57.068 63.9787 55.1519 63.9958 53.2357C63.9958 52.7948 63.9958 52.354 63.9787 51.9131C63.9787 51.6248 63.808 51.4383 63.5348 51.4383C61.6911 51.4383 59.8644 51.4383 57.9865 51.4383H58.0206ZM57.9865 45.4524C58.345 45.4524 58.6352 45.4864 58.9425 45.5033C61.2984 45.5372 62.5105 44.6894 63.1592 42.4341C64.2177 38.7544 64.2006 34.99 63.825 31.2085C63.7055 30.0724 63.0227 29.3772 61.8789 29.2246C60.8204 29.0889 59.7449 29.055 58.6694 29.0041C58.1913 28.9872 57.9694 29.2076 57.9353 29.6824C57.9353 29.8011 57.9353 29.9198 57.9353 30.0555C57.9353 34.9221 57.9353 39.7888 57.9353 44.6724C57.9353 44.9098 57.9694 45.1472 57.9865 45.4524Z" fill="white"/>
<path d="M27.5645 62.7147H21.3162C21.2992 62.189 21.248 61.6633 21.248 61.1546C21.248 50.8109 21.248 40.4501 21.248 30.1063C21.248 29.055 21.2138 29.0211 20.1383 29.0211C18.3799 29.0211 16.6044 29.0211 14.846 29.0211H14.2314C15.0338 27.1558 15.7679 25.3414 16.5874 23.5779C16.7069 23.3065 17.1849 23.1539 17.5263 23.0352C17.7824 22.9504 18.1067 22.9674 18.397 22.9674C23.0746 22.9674 27.7523 22.9674 32.43 22.9674C32.5666 22.9674 32.7031 22.9674 32.8739 22.9674V28.9872C32.8739 28.9872 32.7031 29.0211 32.6178 29.0211C31.3203 29.0211 30.0058 29.0211 28.7083 28.9872C27.8206 28.9872 27.5645 29.2076 27.5645 30.1063C27.5645 33.5825 27.5645 37.0417 27.5645 40.5179C27.5645 47.7077 27.5645 54.8805 27.5645 62.0703V62.7147Z" fill="white"/>
<defs>
<filter id="filter0_ddi_36_2" x="0" y="-172" width="415.64" height="430.97" filterUnits="userSpaceOnUse" color-interpolation-filters="sRGB">
<feFlood flood-opacity="0" result="BackgroundImageFix"/>
<feColorMatrix in="SourceAlpha" type="matrix" values="0 0 0 0 0 0 0 0 0 0 0 0 0 0 0 0 0 0 127 0" result="hardAlpha"/>
<feOffset dx="-72" dy="-72"/>
<feGaussianBlur stdDeviation="60"/>
<feComposite in2="hardAlpha" operator="out"/>
<feColorMatrix type="matrix" values="0 0 0 0 0.509804 0 0 0 0 0.25098 0 0 0 0 0.105882 0 0 0 1 0"/>
<feBlend mode="normal" in2="BackgroundImageFix" result="effect1_dropShadow_36_2"/>
<feColorMatrix in="SourceAlpha" type="matrix" values="0 0 0 0 0 0 0 0 0 0 0 0 0 0 0 0 0 0 127 0" result="hardAlpha"/>
<feOffset dx="72" dy="72"/>
<feGaussianBlur stdDeviation="60"/>
<feComposite in2="hardAlpha" operator="out"/>
<feColorMatrix type="matrix" values="0 0 0 0 0.509804 0 0 0 0 0.25098 0 0 0 0 0.105882 0 0 0 1 0"/>
<feBlend mode="normal" in2="effect1_dropShadow_36_2" result="effect2_dropShadow_36_2"/>
<feBlend mode="normal" in="SourceGraphic" in2="effect2_dropShadow_36_2" result="shape"/>
<feColorMatrix in="SourceAlpha" type="matrix" values="0 0 0 0 0 0 0 0 0 0 0 0 0 0 0 0 0 0 127 0" result="hardAlpha"/>
<feOffset dy="4"/>
<feGaussianBlur stdDeviation="12.5"/>
<feComposite in2="hardAlpha" operator="arithmetic" k2="-1" k3="1"/>
<feColorMatrix type="matrix" values="0 0 0 0 1 0 0 0 0 0.85098 0 0 0 0 0.286275 0 0 0 0.4 0"/>
<feBlend mode="normal" in2="shape" result="effect3_innerShadow_36_2"/>
</filter>
<linearGradient id="paint0_linear_36_2" x1="207.82" y1="20" x2="207.82" y2="66.97" gradientUnits="userSpaceOnUse">
<stop stop-color="#FE0101"/>
<stop offset="1" stop-color="#FFC700" stop-opacity="0.6"/>
</linearGradient>
</defs>
</svg>
